<?xml version="1.0" encoding="UTF-8"?>
<svg width="14px" height="20px" viewBox="0 0 14 20" version="1.1" xmlns="http://www.w3.org/2000/svg" xmlns:xlink="http://www.w3.org/1999/xlink">
    <!-- Generator: Sketch 63.1 (92452) - https://sketch.com -->
    <title>fa-solid:mobile-alt</title>
    <desc>Created with Sketch.</desc>
    <g id="Welcome" stroke="none" stroke-width="1" fill="none" fill-rule="evenodd">
        <g id="Desktop-GameList" transform="translate(-524.000000, -1331.000000)" fill-rule="nonzero">
            <g id="Cards" transform="translate(50.000000, 458.000000)">
                <g id="Dota-Underlords" transform="translate(318.000000, 627.000000)">
                    <g id="Platforms" transform="translate(0.000000, 244.000000)">
                        <g id="fa-solid:mobile-alt" transform="translate(156.000000, 2.000000)">
                            <g id="Icon" transform="translate(0.250000, 0.000000)" fill="#FFFFFF">
                                <path d="M11.05,0 L1.95,0 C0.8734375,0 0,0.83984375 0,1.875 L0,18.125 C0,19.1601562 0.8734375,20 1.95,20 L11.05,20 C12.1265625,20 13,19.1601562 13,18.125 L13,1.875 C13,0.83984375 12.1265625,0 11.05,0 Z M6.5,18.75 C5.7809375,18.75 5.2,18.1914062 5.2,17.5 C5.2,16.8085938 5.7809375,16.25 6.5,16.25 C7.2190625,16.25 7.8,16.8085938 7.8,17.5 C7.8,18.1914062 7.2190625,18.75 6.5,18.75 Z M11.05,14.53125 C11.05,14.7890625 10.830625,15 10.5625,15 L2.4375,15 C2.169375,15 1.95,14.7890625 1.95,14.53125 L1.95,2.34375 C1.95,2.0859375 2.169375,1.875 2.4375,1.875 L10.5625,1.875 C10.830625,1.875 11.05,2.0859375 11.05,2.34375 L11.05,14.53125 Z" id="Icon-Shape"></path>
                            </g>
                            <rect id="ViewBox" x="0.25" y="0" width="13" height="20"></rect>
                        </g>
                    </g>
                </g>
            </g>
        </g>
    </g>
</svg>